<svg width="25" height="24" viewBox="0 0 25 24" fill="none" xmlns="http://www.w3.org/2000/svg">
<g clip-path="url(#clip0_39_673)">
<path d="M14.0506 10.9375H17.6157C18.0409 10.9375 18.4246 11.2131 18.5461 11.6248C18.7219 12.0399 18.61 12.508 18.2903 12.8002L10.1051 20.2377C9.74381 20.5631 9.21529 20.5897 8.82905 20.2975C8.44249 20.0053 8.30181 19.474 8.49013 19.0192L10.9492 13.0625H7.3554C6.95797 13.0625 6.5763 12.7869 6.42638 12.3752C6.27646 11.9602 6.38962 11.492 6.7105 11.1998L14.8947 3.76292C15.256 3.43627 15.7836 3.4114 16.1705 3.70302C16.5573 3.99475 16.698 4.525 16.5094 4.98121L14.0506 10.9375Z" fill="#FF876D" style="fill:#FF876D;fill:color(display-p3 1.0000 0.5313 0.4284);fill-opacity:1;"/>
</g>
<defs>
<clipPath id="clip0_39_673">
<rect width="12.2778" height="17" fill="white" style="fill:white;fill-opacity:1;" transform="translate(6.36108 3.5)"/>
</clipPath>
</defs>
</svg>
