<svg width="44" height="44" viewBox="0 0 44 44" fill="none" xmlns="http://www.w3.org/2000/svg">
<path d="M22 0C7.07763 0 0 7.07763 0 22C0 36.9224 7.07763 44 22 44C36.9224 44 44 36.9224 44 22C44 7.07763 36.9224 0 22 0Z" fill="#72ECC0" fill-opacity="0.1" style="fill:#72ECC0;fill:color(display-p3 0.4471 0.9255 0.7529);fill-opacity:0.1;"/>
<path d="M21.1479 27.0978C20.3318 27.9139 19.0076 27.9139 18.1919 27.0978L13.6121 22.518C12.796 21.7023 12.796 20.3781 13.6121 19.5624C14.4278 18.7463 15.7519 18.7463 16.568 19.5624L19.2967 22.2907C19.5027 22.4963 19.8371 22.4963 20.0435 22.2907L27.432 14.9022C28.2477 14.0861 29.5718 14.0861 30.3879 14.9022C30.7798 15.2941 31 15.8258 31 16.38C31 16.9341 30.7798 17.4659 30.3879 17.8578L21.1479 27.0978Z" fill="#72ECC0" style="fill:#72ECC0;fill:color(display-p3 0.4459 0.9258 0.7531);fill-opacity:1;"/>
</svg>
