<svg width="32" height="32" viewBox="0 0 32 32" fill="none" xmlns="http://www.w3.org/2000/svg">
<path d="M24.7972 15.7821C25.0676 15.51 25.0676 15.0687 24.7972 14.7966L19.0664 9.02821C18.48 8.43789 17.991 7.94564 17.5506 7.60741C17.0857 7.2504 16.5946 7 16 7C15.4054 7 14.9143 7.2504 14.4494 7.60741C14.009 7.94564 13.52 8.43789 12.9335 9.02821L7.20277 14.7966C6.93241 15.0687 6.93241 15.51 7.20277 15.7821C7.47314 16.0542 7.91148 16.0542 8.18184 15.7821L8.57845 15.3829V18.4332C8.57845 21.4273 10.6259 24.0276 13.522 24.7114C15.1519 25.0962 16.8481 25.0962 18.478 24.7114C21.374 24.0276 23.4215 21.4273 23.4215 18.4332V15.3829L23.8182 15.7821C24.0885 16.0542 24.5269 16.0542 24.7972 15.7821Z" fill="white" style="fill:white;fill-opacity:1;"/>
</svg>
