<svg width="37" height="36" viewBox="0 0 37 36" fill="none" xmlns="http://www.w3.org/2000/svg">
<path d="M18.5 0C6.29079 0 0.5 5.79079 0.5 18C0.5 30.2092 6.29079 36 18.5 36C30.7092 36 36.5 30.2092 36.5 18C36.5 5.79079 30.7092 0 18.5 0Z" fill="#FF876D" fill-opacity="0.1" style="fill:#FF876D;fill:color(display-p3 1.0000 0.5313 0.4284);fill-opacity:0.1;"/>
<g clip-path="url(#clip0_39_894)">
<path d="M20.0506 16.9375H23.6157C24.0409 16.9375 24.4246 17.2131 24.5461 17.6248C24.7219 18.0398 24.61 18.508 24.2903 18.8002L16.1051 26.2377C15.7438 26.5631 15.2153 26.5896 14.8291 26.2974C14.4425 26.0053 14.3018 25.474 14.4901 25.0191L16.9492 19.0625H13.3554C12.958 19.0625 12.5763 18.7869 12.4264 18.3752C12.2765 17.9601 12.3896 17.492 12.7105 17.1998L20.8947 9.76289C21.256 9.43624 21.7836 9.41137 22.1705 9.70299C22.5573 9.99472 22.698 10.525 22.5094 10.9812L20.0506 16.9375Z" fill="#FF876D" style="fill:#FF876D;fill:color(display-p3 1.0000 0.5313 0.4284);fill-opacity:1;"/>
</g>
<defs>
<clipPath id="clip0_39_894">
<rect width="12.2778" height="17" fill="white" style="fill:white;fill-opacity:1;" transform="translate(12.3611 9.5)"/>
</clipPath>
</defs>
</svg>
