<svg width="14" height="14" viewBox="0 0 14 14" fill="none" xmlns="http://www.w3.org/2000/svg">
<path fill-rule="evenodd" clip-rule="evenodd" d="M6.49688 2.63309C6.82681 2.54945 7.17324 2.54945 7.50317 2.63309C8.27282 2.82819 8.82343 3.47683 8.88455 4.23843L8.86175 4.23373C7.63422 3.98074 6.36587 3.98074 5.13833 4.23373L5.1155 4.23843C5.17662 3.47683 5.72722 2.82819 6.49688 2.63309ZM9.73296 4.37989V4.5024C10.5929 4.90017 11.2448 5.65159 11.4907 6.57262C11.7808 7.65899 11.7109 8.80678 11.2912 9.85224L11.2419 9.97503C10.7917 11.0965 9.76658 11.9031 8.54575 12.0966L8.14842 12.1596C7.38784 12.2801 6.61223 12.2801 5.85164 12.1596L5.45432 12.0966C4.23349 11.9031 3.20837 11.0965 2.75814 9.97502L2.70885 9.85224C2.28914 8.80678 2.21932 7.65899 2.50935 6.57263C2.75524 5.6516 3.40716 4.90019 4.26709 4.50242V4.37989C4.26709 3.18473 5.09633 2.14039 6.2845 1.8392C6.75369 1.72027 7.24636 1.72027 7.71555 1.8392C8.90372 2.14039 9.73296 3.18473 9.73296 4.37989ZM7.00005 7.49605C7.18622 7.49605 7.33715 7.64297 7.33715 7.8242V8.91801C7.33715 9.09924 7.18622 9.24616 7.00005 9.24616C6.81387 9.24616 6.66295 9.09924 6.66295 8.91801V7.8242C6.66295 7.64297 6.81387 7.49605 7.00005 7.49605Z" fill="#5A3337" style="fill:#5A3337;fill:color(display-p3 0.3529 0.2000 0.2157);fill-opacity:1;"/>
</svg>
