<svg width="250" height="157" viewBox="0 0 250 157" fill="none" xmlns="http://www.w3.org/2000/svg">
<path fill-rule="evenodd" clip-rule="evenodd" d="M207.5 65C211.366 65 214.5 68.134 214.5 72C214.5 75.866 211.366 79 207.5 79H167.5C171.366 79 174.5 82.134 174.5 86C174.5 89.866 171.366 93 167.5 93H189.5C193.366 93 196.5 96.134 196.5 100C196.5 103.866 193.366 107 189.5 107H179.326C174.452 107 170.5 110.134 170.5 114C170.5 116.577 172.5 118.911 176.5 121C180.366 121 183.5 124.134 183.5 128C183.5 131.866 180.366 135 176.5 135H93.5C89.634 135 86.5 131.866 86.5 128C86.5 124.134 89.634 121 93.5 121H54.5C50.634 121 47.5 117.866 47.5 114C47.5 110.134 50.634 107 54.5 107H94.5C98.366 107 101.5 103.866 101.5 100C101.5 96.134 98.366 93 94.5 93H69.5C65.634 93 62.5 89.866 62.5 86C62.5 82.134 65.634 79 69.5 79H109.5C105.634 79 102.5 75.866 102.5 72C102.5 68.134 105.634 65 109.5 65H207.5ZM207.5 93C211.366 93 214.5 96.134 214.5 100C214.5 103.866 211.366 107 207.5 107C203.634 107 200.5 103.866 200.5 100C200.5 96.134 203.634 93 207.5 93Z" fill="#201423" style="fill:#201423;fill:color(display-p3 0.1255 0.0784 0.1373);fill-opacity:1;"/>
<path d="M156.486 65.045L157.988 65.9143V64.1796V61.1888C157.988 56.4652 156.694 52.6515 154.074 50.0203C151.453 47.3884 147.648 46.0834 142.923 46.0834H124.088C119.363 46.0834 115.558 47.3884 112.937 50.0203C110.317 52.6515 109.023 56.4652 109.023 61.1888V64.22V65.959L110.526 65.0844L124.832 56.7596C124.832 56.7595 124.833 56.7593 124.833 56.7592C129.896 53.828 137.072 53.8259 142.18 56.7603C142.181 56.7606 142.181 56.7609 142.182 56.7613L156.486 65.045Z" stroke="#FF876D" style="stroke:#FF876D;stroke:color(display-p3 1.0000 0.5294 0.4275);stroke-opacity:1;" stroke-width="2"/>
<path d="M156.04 71.7896L156.065 71.8038L156.09 71.8166L156.598 72.0702C160.231 74.5276 161.925 75.8407 162.809 77.3811C163.679 78.8993 163.823 80.7508 163.823 84.6235V102.892C163.823 106.79 163.689 108.641 162.841 110.139C161.983 111.657 160.328 112.931 156.736 115.34L139.143 125.508L139.141 125.509C137.59 126.411 135.551 126.869 133.5 126.869C131.396 126.869 129.409 126.446 127.874 125.518L127.865 125.513L127.856 125.508L110.427 115.462C106.777 112.994 105.077 111.678 104.192 110.134C103.321 108.616 103.177 106.765 103.177 102.892V84.6235C103.177 80.7501 103.321 78.8966 104.174 77.392C105.037 75.8702 106.689 74.5882 110.24 72.1917L110.91 71.857L110.94 71.8418L110.97 71.8245L116.462 68.5938L127.855 62.0489L127.859 62.0463C129.415 61.1416 131.437 60.6661 133.5 60.6661C135.564 60.6661 137.585 61.1416 139.141 62.0463L139.143 62.0475L150.541 68.6355L150.543 68.6371L156.04 71.7896ZM143.051 97.2595L143.069 97.2392L143.087 97.2178L145.547 94.1933C146.474 93.0911 146.841 91.7795 146.438 90.5635C146.037 89.3523 144.962 88.5074 143.576 88.1427L143.571 88.1415L139.828 87.1754C139.69 87.1342 139.479 87.03 139.259 86.8666C139.033 86.6987 138.873 86.5249 138.798 86.4032L138.791 86.3926L138.784 86.3823L136.683 83.1489L136.679 83.1431C135.888 81.9441 134.762 81.1783 133.485 81.1783C132.206 81.1783 131.088 81.9471 130.316 83.1517C130.315 83.1528 130.314 83.1538 130.314 83.1549L128.22 86.3766C128.129 86.5107 127.959 86.6947 127.741 86.8632C127.519 87.0349 127.316 87.1366 127.183 87.1727L123.429 88.1415L123.424 88.1427C122.039 88.5074 120.964 89.3523 120.562 90.5635C120.159 91.7816 120.527 93.0956 121.458 94.199C121.459 94.1996 121.459 94.2002 121.46 94.2008L123.963 97.1887L123.976 97.2041L123.99 97.2191C124.072 97.3094 124.185 97.4979 124.273 97.756C124.359 98.0123 124.388 98.2415 124.379 98.3795L124.378 98.3836L124.136 102.258C124.136 102.259 124.136 102.26 124.136 102.261C124.04 103.692 124.497 104.978 125.528 105.734C126.56 106.492 127.925 106.538 129.262 106.004C129.263 106.003 129.263 106.003 129.264 106.003L132.838 104.597C132.981 104.549 133.228 104.508 133.52 104.508C133.811 104.508 134.055 104.548 134.199 104.596L137.773 106.042L137.782 106.045L137.791 106.049C139.122 106.557 140.479 106.51 141.509 105.762C142.543 105.012 143.001 103.734 142.905 102.301C142.905 102.3 142.905 102.299 142.905 102.299L142.662 98.4241L142.662 98.4199C142.653 98.282 142.682 98.0527 142.768 97.7964C142.856 97.5384 142.969 97.3498 143.051 97.2595Z" fill="#07071B" stroke="#FF876D" style="fill:#07071B;fill:color(display-p3 0.0275 0.0275 0.1059);fill-opacity:1;stroke:#FF876D;stroke:color(display-p3 1.0000 0.5294 0.4275);stroke-opacity:1;" stroke-width="2"/>
</svg>
