<svg width="109" height="26" viewBox="0 0 109 26" fill="none" xmlns="http://www.w3.org/2000/svg">
<g clip-path="url(#clip0_97_4160)">
<path d="M6.56771 15.6512C6.56771 17.101 6.57744 18.3805 6.5969 19.4897C6.61636 20.5892 6.67961 21.4259 6.78663 22H2.18924C2.29627 21.4162 2.35951 20.5746 2.37897 19.4751C2.39843 18.3659 2.40816 17.0912 2.40816 15.6512V5.31801C2.40816 4.63692 2.39843 4.00447 2.37897 3.42068C2.36924 2.82715 2.34978 2.29687 2.32059 1.82983C2.2914 1.36279 2.24762 0.983325 2.18924 0.691426C3.02601 0.671966 3.87252 0.647642 4.72875 0.618452C5.08876 0.608722 5.47309 0.603857 5.88175 0.603857C6.29041 0.594127 6.70393 0.584397 7.12232 0.574667C7.55044 0.564937 7.97369 0.560072 8.39208 0.560072C8.81046 0.550342 9.21426 0.545477 9.60345 0.545477C10.7808 0.545477 11.8559 0.686561 12.8289 0.96873C13.8019 1.2509 14.6338 1.67415 15.3247 2.23849C16.0155 2.79309 16.5506 3.48878 16.9301 4.32556C17.3193 5.16233 17.5139 6.14019 17.5139 7.25914C17.5139 8.38781 17.3193 9.39972 16.9301 10.2949C16.5409 11.19 15.9912 11.949 15.2809 12.5717C14.5803 13.1944 13.7338 13.676 12.7414 14.0166C11.7489 14.3474 10.6543 14.5128 9.4575 14.5128C8.92236 14.5128 8.42613 14.5031 7.96882 14.4836C7.51152 14.4544 7.04448 14.4155 6.56771 14.3669V15.6512ZM6.56771 11.1998C6.87907 11.2484 7.24881 11.2873 7.67692 11.3165C8.11477 11.336 8.56235 11.3457 9.01966 11.3457C10.4402 11.3457 11.5154 11.0198 12.2451 10.3679C12.9846 9.71595 13.3543 8.72836 13.3543 7.40509C13.3543 6.87967 13.2765 6.39804 13.1208 5.96019C12.9651 5.51261 12.7122 5.13315 12.3619 4.82179C12.0213 4.51043 11.5786 4.26718 11.0338 4.09204C10.4986 3.9169 9.8467 3.82933 9.07804 3.82933C8.79587 3.82933 8.54289 3.8342 8.3191 3.84393C8.09531 3.84393 7.88612 3.84879 7.69152 3.85852C7.50665 3.85852 7.32178 3.86339 7.13691 3.87312C6.96177 3.88285 6.77204 3.89258 6.56771 3.90231V11.1998ZM31.6856 22C31.6174 21.8443 31.5445 21.6643 31.4666 21.46C31.3888 21.2459 31.311 21.0221 31.2331 20.7886C31.165 20.5551 31.0969 20.3119 31.0288 20.0589C30.9704 19.8059 30.9218 19.5529 30.8828 19.2999C30.0169 20.3021 29.1217 21.0659 28.1974 21.5913C27.273 22.107 26.3098 22.3649 25.3076 22.3649C22.2621 22.3649 20.7394 20.2729 20.7394 16.0891V11.7836C20.7394 11.3165 20.7345 10.8933 20.7248 10.5138C20.7248 10.1343 20.715 9.76946 20.6956 9.41918C20.6761 9.05918 20.6469 8.6943 20.608 8.32457C20.5691 7.95483 20.5156 7.55104 20.4475 7.11319H24.8259V15.2134C24.8259 15.875 24.8551 16.4442 24.9135 16.921C24.9816 17.3977 25.0935 17.7918 25.2492 18.1032C25.4049 18.4048 25.6092 18.6286 25.8622 18.7745C26.1152 18.9205 26.4265 18.9934 26.7963 18.9934C27.1271 18.9934 27.4774 18.8961 27.8471 18.7015C28.2266 18.507 28.5866 18.2588 28.9271 17.9572C29.2774 17.6459 29.5936 17.3102 29.8758 16.9502C30.158 16.5902 30.372 16.2399 30.518 15.8993V11.7836C30.518 11.3068 30.5131 10.8787 30.5034 10.4992C30.5034 10.11 30.4936 9.74027 30.4742 9.38999C30.4547 9.03972 30.4255 8.68457 30.3866 8.32457C30.3477 7.96456 30.2942 7.56077 30.2261 7.11319H34.6045V15.4323C34.6045 16.8529 34.6824 18.0983 34.8381 19.1686C35.0035 20.2292 35.2419 21.173 35.5532 22H31.6856ZM49.6227 11.5354C49.2919 11.3117 48.9757 11.1171 48.674 10.9517C48.3821 10.7765 48.0854 10.6354 47.7837 10.5284C47.4918 10.4116 47.1854 10.3241 46.8643 10.2657C46.5432 10.2073 46.1929 10.1781 45.8134 10.1781C45.3075 10.1781 44.8356 10.2803 44.3977 10.4846C43.9599 10.6889 43.5755 10.9857 43.2447 11.3749C42.9236 11.7641 42.6707 12.2409 42.4858 12.8052C42.3009 13.3598 42.2085 13.9923 42.2085 14.7025C42.2085 15.3447 42.2912 15.9334 42.4566 16.4685C42.6317 16.9939 42.875 17.4464 43.1863 17.8259C43.4977 18.1956 43.8772 18.4875 44.3248 18.7015C44.7723 18.9059 45.2686 19.008 45.8134 19.008C46.2513 19.008 46.6551 18.974 47.0248 18.9059C47.3945 18.828 47.7448 18.721 48.0756 18.5848C48.4065 18.4486 48.7227 18.2832 49.0243 18.0886C49.3357 17.894 49.6519 17.6702 49.973 17.4172L50.4108 20.9784C50.0411 21.2021 49.6665 21.4016 49.287 21.5767C48.9076 21.7519 48.5086 21.8978 48.0902 22.0146C47.6719 22.1314 47.2291 22.2189 46.7621 22.2773C46.2951 22.3357 45.7891 22.3649 45.2442 22.3649C44.2615 22.3649 43.3372 22.1995 42.4712 21.8686C41.6052 21.5378 40.8512 21.0513 40.209 20.4092C39.5668 19.767 39.056 18.9789 38.6765 18.0448C38.3068 17.1107 38.1219 16.0453 38.1219 14.8485C38.1219 13.7101 38.3019 12.6544 38.6619 11.6814C39.0219 10.6987 39.5328 9.8473 40.1944 9.12729C40.856 8.40727 41.6539 7.84293 42.588 7.43428C43.5318 7.02562 44.5826 6.82129 45.7405 6.82129C46.7135 6.82129 47.5746 6.92345 48.3238 7.12778C49.0827 7.33211 49.7297 7.57536 50.2649 7.85753L49.6227 11.5354ZM57.0369 15.4323C57.1342 16.6972 57.4894 17.6118 58.1024 18.1761C58.7251 18.7307 59.5862 19.008 60.6856 19.008C61.6489 19.008 62.583 18.901 63.4879 18.687C64.4025 18.4632 65.3171 18.0788 66.2317 17.534L66.5382 20.9054C66.0128 21.1681 65.4971 21.3919 64.9911 21.5767C64.4949 21.7616 63.9938 21.9124 63.4879 22.0292C62.9916 22.1459 62.4808 22.2287 61.9554 22.2773C61.43 22.3357 60.8851 22.3649 60.3208 22.3649C59.3575 22.3649 58.4332 22.2043 57.5477 21.8832C56.672 21.5524 55.8985 21.0708 55.2272 20.4383C54.5558 19.7962 54.0206 19.0032 53.6217 18.0594C53.2325 17.1156 53.0379 16.021 53.0379 14.7755C53.0379 13.569 53.2033 12.4793 53.5341 11.5063C53.8747 10.5235 54.3612 9.68676 54.9936 8.99593C55.6261 8.29538 56.3899 7.76023 57.285 7.39049C58.1802 7.01102 59.1921 6.82129 60.3208 6.82129C61.1381 6.82129 61.8532 6.92345 62.4662 7.12778C63.0889 7.32238 63.6241 7.59482 64.0717 7.9451C64.529 8.28565 64.9084 8.6943 65.2101 9.17107C65.5214 9.63811 65.7647 10.1489 65.9398 10.7035C66.1247 11.2484 66.256 11.8225 66.3339 12.4257C66.4117 13.029 66.4506 13.6322 66.4506 14.2355V14.4982C66.4506 14.6052 66.4506 14.7171 66.4506 14.8339C66.4604 14.9507 66.4652 15.0626 66.4652 15.1696V15.4323H57.0369ZM60.1164 9.88622C59.2699 9.88622 58.5986 10.1149 58.1024 10.5722C57.6159 11.0198 57.2899 11.7641 57.1245 12.8052H62.7435C62.7435 11.7738 62.5197 11.0295 62.0722 10.5722C61.6343 10.1149 60.9824 9.88622 60.1164 9.88622Z" fill="#FF876D" style="fill:#FF876D;fill:color(display-p3 1.0000 0.5313 0.4284);fill-opacity:1;"/>
<rect x="21.0989" y="0.604706" width="43.1383" height="3.2253" fill="#FF876D" style="fill:#FF876D;fill:color(display-p3 1.0000 0.5313 0.4284);fill-opacity:1;"/>
<path d="M84.7772 14.2227C83.6461 14.2227 82.7145 13.2912 82.7145 12.1601C82.7145 11.2951 83.2468 10.5631 84.0453 10.2304C83.5795 10.0974 83.1138 9.96429 82.648 9.96429C80.2526 9.96429 78.323 11.8939 78.323 14.2893C78.323 16.6847 80.2526 18.6143 82.648 18.6143C85.0434 18.6143 86.973 16.7512 86.973 14.3558C86.973 13.89 86.9064 13.3577 86.7068 12.9585C86.3741 13.6904 85.6422 14.2227 84.7772 14.2227Z" fill="#FF876D" style="fill:#FF876D;fill:color(display-p3 1.0000 0.5313 0.4284);fill-opacity:1;"/>
<path d="M100.414 4.77431C102.676 3.7097 105.138 2.91124 107.6 2.71162C103.608 -0.482211 96.4215 -1.6799 90.9653 3.77624C85.5092 -1.6799 78.3231 -0.482211 74.3308 2.71162C76.7927 2.91124 79.2546 3.7097 81.5169 4.77431C76.7261 5.37315 73 9.43198 73 14.3558C73 19.6789 77.325 24.0039 82.648 24.0039C84.5777 24.0039 86.3076 23.4715 87.838 22.4735L90.9653 26L94.0926 22.4735C95.623 23.405 97.353 24.0039 99.2826 24.0039C104.606 24.0039 108.931 19.6789 108.931 14.3558C108.931 9.43198 105.205 5.37315 100.414 4.77431ZM75.6615 14.3558C75.6615 10.4966 78.7888 7.3693 82.648 7.3693C86.5073 7.3693 89.6346 10.4966 89.6346 14.3558C89.6346 18.215 86.5073 21.3423 82.648 21.3423C78.7888 21.3423 75.6615 18.215 75.6615 14.3558ZM99.2826 21.3423C95.4234 21.3423 92.2961 18.215 92.2961 14.3558C92.2961 10.4966 95.4234 7.3693 99.2826 7.3693C103.142 7.3693 106.269 10.4966 106.269 14.3558C106.269 18.215 103.142 21.3423 99.2826 21.3423Z" fill="#FF876D" style="fill:#FF876D;fill:color(display-p3 1.0000 0.5313 0.4284);fill-opacity:1;"/>
<path d="M101.412 14.2227C100.281 14.2227 99.349 13.2912 99.349 12.1601C99.349 11.2951 99.8813 10.5631 100.68 10.2304C100.214 10.0974 99.7483 9.96429 99.2825 9.96429C96.8871 9.96429 94.9575 11.8939 94.9575 14.2893C94.9575 16.6847 96.8871 18.6143 99.2825 18.6143C101.678 18.6143 103.607 16.7512 103.607 14.3558C103.607 13.89 103.541 13.3577 103.341 12.9585C103.009 13.6904 102.277 14.2227 101.412 14.2227Z" fill="#FF876D" style="fill:#FF876D;fill:color(display-p3 1.0000 0.5313 0.4284);fill-opacity:1;"/>
</g>
<defs>
<clipPath id="clip0_97_4160">
<rect width="108.931" height="26" fill="white" style="fill:white;fill-opacity:1;"/>
</clipPath>
</defs>
</svg>
