<svg width="44" height="44" viewBox="0 0 44 44" fill="none" xmlns="http://www.w3.org/2000/svg">
<path d="M22 0C7.07763 0 0 7.07763 0 22C0 36.9224 7.07763 44 22 44C36.9224 44 44 36.9224 44 22C44 7.07763 36.9224 0 22 0Z" fill="#FF5775" fill-opacity="0.1" style="fill:#FF5775;fill:color(display-p3 1.0000 0.3412 0.4588);fill-opacity:0.1;"/>
<path fill-rule="evenodd" clip-rule="evenodd" d="M18.1782 15.8215C17.5273 15.1706 16.472 15.1706 15.8212 15.8215C15.1703 16.4724 15.1703 17.5276 15.8212 18.1785L19.6426 22L15.8212 25.8215C15.1703 26.4724 15.1703 27.5277 15.8212 28.1785C16.472 28.8294 17.5273 28.8294 18.1782 28.1785L21.9996 24.357L25.821 28.1785C26.4719 28.8294 27.5272 28.8294 28.1781 28.1785C28.8289 27.5277 28.829 26.4724 28.1781 25.8215L24.3566 22L28.1781 18.1785C28.829 17.5276 28.8289 16.4724 28.1781 15.8215C27.5272 15.1706 26.4719 15.1706 25.821 15.8215L21.9996 19.643L18.1782 15.8215Z" fill="#FF5775" style="fill:#FF5775;fill:color(display-p3 1.0000 0.3417 0.4602);fill-opacity:1;"/>
</svg>
