<svg width="25" height="25" viewBox="0 0 25 25" fill="none" xmlns="http://www.w3.org/2000/svg">
<path d="M19.4401 5.92141L14.2701 2.93141C13.2801 2.36141 11.7301 2.36141 10.7401 2.93141L5.52008 5.94141C3.45008 7.34141 3.33008 7.55141 3.33008 9.78141V15.2114C3.33008 17.4414 3.45008 17.6614 5.56008 19.0814L10.7301 22.0714C11.2301 22.3614 11.8701 22.5014 12.5001 22.5014C13.1301 22.5014 13.7701 22.3614 14.2601 22.0714L19.4801 19.0614C21.5501 17.6614 21.6701 17.4514 21.6701 15.2214V9.78141C21.6701 7.55141 21.5501 7.34141 19.4401 5.92141ZM12.5001 15.7514C10.7101 15.7514 9.25008 14.2914 9.25008 12.5014C9.25008 10.7114 10.7101 9.25141 12.5001 9.25141C14.2901 9.25141 15.7501 10.7114 15.7501 12.5014C15.7501 14.2914 14.2901 15.7514 12.5001 15.7514Z" fill="white" style="fill:white;fill-opacity:1;"/>
</svg>
