<svg width="32" height="32" viewBox="0 0 32 32" fill="none" xmlns="http://www.w3.org/2000/svg">
<path d="M20.19 6H11.81C8.17 6 6 8.17 6 11.81V20.18C6 23.83 8.17 26 11.81 26H20.18C23.82 26 25.99 23.83 25.99 20.19V11.81C26 8.17 23.83 6 20.19 6ZM11.63 22.15C11.63 22.56 11.29 22.9 10.88 22.9C10.47 22.9 10.13 22.56 10.13 22.15V20.08C10.13 19.67 10.47 19.33 10.88 19.33C11.29 19.33 11.63 19.67 11.63 20.08V22.15ZM16.75 22.15C16.75 22.56 16.41 22.9 16 22.9C15.59 22.9 15.25 22.56 15.25 22.15V18C15.25 17.59 15.59 17.25 16 17.25C16.41 17.25 16.75 17.59 16.75 18V22.15ZM21.87 22.15C21.87 22.56 21.53 22.9 21.12 22.9C20.71 22.9 20.37 22.56 20.37 22.15V15.93C20.37 15.52 20.71 15.18 21.12 15.18C21.53 15.18 21.87 15.52 21.87 15.93V22.15ZM21.87 12.77C21.87 13.18 21.53 13.52 21.12 13.52C20.71 13.52 20.37 13.18 20.37 12.77V11.8C17.82 14.42 14.63 16.27 11.06 17.16C11 17.18 10.94 17.18 10.88 17.18C10.54 17.18 10.24 16.95 10.15 16.61C10.05 16.21 10.29 15.8 10.7 15.7C14.07 14.86 17.07 13.09 19.45 10.59H18.2C17.79 10.59 17.45 10.25 17.45 9.84C17.45 9.43 17.79 9.09 18.2 9.09H21.13C21.17 9.09 21.2 9.11 21.24 9.11C21.29 9.12 21.34 9.12 21.39 9.14C21.44 9.16 21.48 9.19 21.53 9.22C21.56 9.24 21.59 9.25 21.62 9.27C21.63 9.28 21.63 9.29 21.64 9.29C21.68 9.33 21.71 9.37 21.74 9.41C21.77 9.45 21.8 9.48 21.81 9.52C21.83 9.56 21.83 9.6 21.84 9.65C21.85 9.7 21.87 9.75 21.87 9.81C21.87 9.82 21.88 9.83 21.88 9.84V12.77H21.87Z" fill="white" style="fill:white;fill-opacity:1;"/>
</svg>
