<svg width="45" height="44" viewBox="0 0 45 44" fill="none" xmlns="http://www.w3.org/2000/svg">
<path d="M22.25 0C7.32763 0 0.25 7.07763 0.25 22C0.25 36.9224 7.32763 44 22.25 44C37.1724 44 44.25 36.9224 44.25 22C44.25 7.07763 37.1724 0 22.25 0Z" fill="#FF876D" fill-opacity="0.1" style="fill:#FF876D;fill:color(display-p3 1.0000 0.5313 0.4284);fill-opacity:0.1;"/>
<g clip-path="url(#clip0_97_3848)">
<path d="M22.2109 27.4277H15.375C13.6519 27.4277 12.25 26.0258 12.25 24.3027V19.6933C12.25 17.9702 13.6519 16.5683 15.375 16.5683H22.2109C22.6424 16.5683 22.9922 16.918 22.9922 17.3495C22.9922 17.781 22.6424 18.1308 22.2109 18.1308H15.375C14.5134 18.1308 13.8125 18.8317 13.8125 19.6933V24.3027C13.8125 25.1642 14.5134 25.8652 15.375 25.8652H22.2109C22.6424 25.8652 22.9922 26.2149 22.9922 26.6464C22.9922 27.0779 22.6424 27.4277 22.2109 27.4277ZM29.125 16.5683H28.4219C27.9904 16.5683 27.6406 16.918 27.6406 17.3495C27.6406 17.781 27.9904 18.1308 28.4219 18.1308H29.125C29.9866 18.1308 30.6875 18.8317 30.6875 19.6933V24.3027C30.6875 25.1642 29.9866 25.8652 29.125 25.8652H28.4219C27.9904 25.8652 27.6406 26.2149 27.6406 26.6464C27.6406 27.0779 27.9904 27.4277 28.4219 27.4277H29.125C30.8481 27.4277 32.25 26.0258 32.25 24.3027V19.6933C32.25 17.9701 30.8481 16.5683 29.125 16.5683ZM28.4219 30.4375C27.1295 30.4375 26.0781 29.3861 26.0781 28.0938V15.9062C26.0781 14.6139 27.1295 13.5625 28.4219 13.5625C28.8534 13.5625 29.2031 13.2127 29.2031 12.7812C29.2031 12.3498 28.8534 12 28.4219 12C27.1455 12 26.0102 12.6154 25.2969 13.5651C24.5836 12.6154 23.4483 12 22.1719 12C21.7404 12 21.3906 12.3498 21.3906 12.7812C21.3906 13.2127 21.7404 13.5625 22.1719 13.5625C23.4642 13.5625 24.5156 14.6139 24.5156 15.9062V28.0938C24.5156 29.3861 23.4642 30.4375 22.1719 30.4375C21.7404 30.4375 21.3906 30.7873 21.3906 31.2188C21.3906 31.6502 21.7404 32 22.1719 32C23.4483 32 24.5836 31.3846 25.2969 30.4349C26.0102 31.3846 27.1455 32 28.4219 32C28.8534 32 29.2031 31.6502 29.2031 31.2188C29.2031 30.7873 28.8534 30.4375 28.4219 30.4375Z" fill="#FF876D" style="fill:#FF876D;fill:color(display-p3 1.0000 0.5313 0.4284);fill-opacity:1;"/>
</g>
<defs>
<clipPath id="clip0_97_3848">
<rect width="20" height="20" fill="white" style="fill:white;fill-opacity:1;" transform="translate(12.25 12)"/>
</clipPath>
</defs>
</svg>
