<svg width="24" height="25" viewBox="0 0 24 25" fill="none" xmlns="http://www.w3.org/2000/svg">
<path fill-rule="evenodd" clip-rule="evenodd" d="M15.8216 18.6785C16.4724 19.3294 17.5277 19.3294 18.1786 18.6785C18.8295 18.0276 18.8295 16.9724 18.1786 16.3215L14.3571 12.5L18.1786 8.67849C18.8295 8.02762 18.8295 6.97234 18.1786 6.32147C17.5277 5.6706 16.4724 5.67061 15.8216 6.32148L12.0001 10.143L8.17871 6.32148C7.52784 5.67061 6.47257 5.6706 5.82169 6.32147C5.17081 6.97234 5.1708 8.02762 5.82168 8.67849L9.64313 12.5L5.82167 16.3215C5.1708 16.9724 5.17081 18.0276 5.82169 18.6785C6.47256 19.3294 7.52784 19.3294 8.17871 18.6785L12.0001 14.857L15.8216 18.6785Z" fill="white" style="fill:white;fill-opacity:1;"/>
</svg>
