<svg width="1000" height="1000" viewBox="0 0 1000 1000" fill="none" xmlns="http://www.w3.org/2000/svg">
<rect width="1000" height="1000" fill="#100E15" style="fill:#100E15;fill:color(display-p3 0.0627 0.0549 0.0824);fill-opacity:1;"/>
<path d="M402.995 519.372C385.172 519.372 370.494 504.694 370.494 486.871C370.494 473.241 378.881 461.708 391.463 456.466C384.123 454.369 376.784 452.272 369.445 452.272C331.702 452.272 301.297 482.677 301.297 520.421C301.297 558.164 331.702 588.569 369.445 588.569C407.189 588.569 437.594 559.213 437.594 521.469C437.594 514.13 436.545 505.742 433.4 499.452C428.158 510.985 416.625 519.372 402.995 519.372Z" fill="#FF876D" style="fill:#FF876D;fill:color(display-p3 1.0000 0.5313 0.4284);fill-opacity:1;"/>
<path d="M649.378 370.493C685.025 353.718 723.817 341.137 762.609 337.992C699.703 287.667 586.472 268.795 500.5 354.767C414.528 268.795 301.297 287.667 238.391 337.992C277.183 341.137 315.975 353.718 351.622 370.493C276.134 379.929 217.422 443.884 217.422 521.468C217.422 605.343 285.57 673.492 369.445 673.492C399.85 673.492 427.109 665.104 451.223 649.378L500.5 704.945L549.777 649.378C573.891 664.056 601.15 673.492 631.555 673.492C715.43 673.492 783.578 605.343 783.578 521.468C783.578 443.884 724.866 379.929 649.378 370.493ZM259.359 521.468C259.359 460.659 308.636 411.382 369.445 411.382C430.255 411.382 479.531 460.659 479.531 521.468C479.531 582.278 430.255 631.554 369.445 631.554C308.636 631.554 259.359 582.278 259.359 521.468ZM631.555 631.554C570.745 631.554 521.469 582.278 521.469 521.468C521.469 460.659 570.745 411.382 631.555 411.382C692.364 411.382 741.641 460.659 741.641 521.468C741.641 582.278 692.364 631.554 631.555 631.554Z" fill="#FF876D" style="fill:#FF876D;fill:color(display-p3 1.0000 0.5313 0.4284);fill-opacity:1;"/>
<path d="M665.105 519.372C647.281 519.372 632.603 504.694 632.603 486.871C632.603 473.241 640.991 461.708 653.572 456.466C646.233 454.369 638.894 452.272 631.555 452.272C593.811 452.272 563.406 482.677 563.406 520.421C563.406 558.164 593.811 588.569 631.555 588.569C669.298 588.569 699.703 559.213 699.703 521.469C699.703 514.13 698.655 505.742 695.509 499.452C690.267 510.985 678.734 519.372 665.105 519.372Z" fill="#FF876D" style="fill:#FF876D;fill:color(display-p3 1.0000 0.5313 0.4284);fill-opacity:1;"/>
</svg>
